<?xml version="1.0" standalone="no"?>
<!DOCTYPE svg PUBLIC "-//W3C//DTD SVG 20010904//EN"
 "http://www.w3.org/TR/2001/REC-SVG-20010904/DTD/svg10.dtd">
<svg version="1.0" xmlns="http://www.w3.org/2000/svg"
 width="426.000000pt" height="426.000000pt" viewBox="0 0 426.000000 426.000000"
 preserveAspectRatio="xMidYMid meet">
<metadata>
Created by potrace 1.14, written by Peter Selinger 2001-2017
</metadata>
<g transform="translate(0.000000,426.000000) scale(0.100000,-0.100000)"
fill="#000000" stroke="none">
<path d="M411 3538 c7 -13 74 -131 149 -263 75 -132 195 -341 265 -465 70
-124 237 -416 370 -650 133 -234 345 -605 470 -825 352 -618 467 -820 470
-823 1 -2 386 669 856 1490 469 821 861 1508 872 1526 l19 32 -1741 0 -1742 0
12 -22z m2459 -437 l-735 -369 -727 365 c-401 200 -728 366 -728 368 0 3 658
5 1463 4 l1462 0 -735 -368z m-780 -1386 l0 -940 -59 100 c-32 55 -172 300
-311 545 -139 245 -371 652 -515 905 -144 253 -337 592 -429 753 -92 162 -170
301 -173 309 -3 8 330 -154 741 -359 l746 -373 0 -940z m1590 1681 c0 -3 -337
-596 -750 -1318 l-750 -1313 0 945 1 945 742 371 c408 205 745 372 750 373 4
0 7 -1 7 -3z"/>
</g>
</svg>
