<?xml version="1.0" encoding="UTF-8" standalone="no"?>
<!-- Created with Inkscape (http://www.inkscape.org/) -->

<svg
   version="1.1"
   id="svg2"
   xml:space="preserve"
   width="1122.52"
   height="793.70667"
   viewBox="0 0 1122.52 793.70667"
   sodipodi:docname="Triangle_Monday_Black_logo_RGB.eps"
   xmlns:inkscape="http://www.inkscape.org/namespaces/inkscape"
   xmlns:sodipodi="http://sodipodi.sourceforge.net/DTD/sodipodi-0.dtd"
   xmlns="http://www.w3.org/2000/svg"
   xmlns:svg="http://www.w3.org/2000/svg"><defs
     id="defs6" /><sodipodi:namedview
     id="namedview4"
     pagecolor="#ffffff"
     bordercolor="#666666"
     borderopacity="1.0"
     inkscape:pageshadow="2"
     inkscape:pageopacity="0.0"
     inkscape:pagecheckerboard="0" /><g
     id="g8"
     inkscape:groupmode="layer"
     inkscape:label="ink_ext_XXXXXX"
     transform="matrix(1.3333333,0,0,-1.3333333,0,793.70667)"><g
       id="g10"
       transform="scale(0.1)"><path
         d="m 4219.19,3404.96 363.29,181.65 -363.29,-635.78 z m -20.88,0.01 v -454.05 l -361.98,635.67 z m 10.44,18.11 -354.47,177.85 h 710.17 z m -416.5,198.72 416.48,-731.34 417.92,731.34 h -834.4"
         style="fill:#040606;fill-opacity:1;fill-rule:nonzero;stroke:none"
         id="path12" /><path
         d="m 3757.69,2414.82 h 36.05 v -48.95 c -8.5,-5.95 -21.55,-9.35 -38.27,-9.35 -36.85,0 -73.14,22.96 -73.14,69.74 0,47.34 37.42,70.59 72.85,70.59 16.6,0 32.12,-4.68 44.72,-11.5 l 12.38,19.46 -1.81,1.4 c -13.33,8.5 -33.45,14.45 -58.4,14.45 -45.08,0 -97.53,-31.46 -97.53,-94.11 0,-61.25 50.47,-93.85 99.23,-93.85 26.93,0 48.76,5.67 66.06,19.57 v 84.67 h -62.14 v -22.12"
         style="fill:#040606;fill-opacity:1;fill-rule:nonzero;stroke:none"
         id="path14" /><path
         d="m 2729.15,2492.31 v -157.34 h -27.5 v 157.34 h -63.74 v 23.53 h 154.99 v -23.53 h -63.75"
         style="fill:#040606;fill-opacity:1;fill-rule:nonzero;stroke:none"
         id="path16" /><path
         d="m 2913.36,2492.59 h -25.23 l 0.16,-55.57 h 25.23 c 16.16,0 31.03,9.08 31.03,28.07 0,18.71 -15.03,27.5 -31.19,27.5 z m 57.27,-157.62 -56.82,78.82 h -25.52 l -0.16,-78.82 h -27.21 v 180.87 h 57.27 c 25.51,0 54.43,-16.44 54.43,-50.75 0,-24.09 -13.55,-43.04 -31.12,-50.13 l 61.17,-79.99 h -32.04"
         style="fill:#040606;fill-opacity:1;fill-rule:nonzero;stroke:none"
         id="path18" /><path
         d="m 3073.5,2334.97 v 180.87 h 27.49 v -180.87 h -27.49"
         style="fill:#040606;fill-opacity:1;fill-rule:nonzero;stroke:none"
         id="path20" /><path
         d="m 3261.99,2447.8 c -2.55,5.96 -5.39,14.45 -7.66,22.12 h -0.56 c -1.98,-7.67 -5.1,-16.16 -7.66,-22.12 l -15.69,-38.78 h 47.64 z m 46.78,-112.83 -21.36,52.23 h -66.34 l -21.74,-52.23 h -26.93 l 77.12,183.42 h 9.92 l 77.11,-183.42 h -27.78"
         style="fill:#040606;fill-opacity:1;fill-rule:nonzero;stroke:none"
         id="path22" /><path
         d="m 5510.25,2447.8 c -2.55,5.96 -5.39,14.45 -7.66,22.12 h -0.57 c -1.98,-7.67 -5.1,-16.16 -7.65,-22.12 l -15.69,-38.78 h 47.63 z m 46.77,-112.83 -21.36,52.23 h -66.34 l -21.73,-52.23 h -26.93 l 77.11,183.42 h 9.93 l 77.1,-183.42 h -27.78"
         style="fill:#040606;fill-opacity:1;fill-rule:nonzero;stroke:none"
         id="path24" /><path
         d="m 3565.57,2331 -84.77,92.71 c -13.6,14.74 -29.19,32.88 -41.67,47.62 l -0.57,-0.29 c 0.57,-16.44 0.57,-31.75 0.57,-45.35 v -90.72 h -27.5 v 180.87 h 19 l 77.67,-85.04 c 10.49,-11.63 26.94,-29.77 37.99,-43.38 l 0.57,0.28 c -0.57,13.89 -0.57,29.48 -0.57,42.53 v 85.61 h 27.5 V 2331 h -8.22"
         style="fill:#040606;fill-opacity:1;fill-rule:nonzero;stroke:none"
         id="path26" /><path
         d="m 3905.66,2334.97 v 180.87 h 27.5 V 2358.5 h 89.27 v -23.53 h -116.77"
         style="fill:#040606;fill-opacity:1;fill-rule:nonzero;stroke:none"
         id="path28" /><path
         d="m 4093.59,2334.97 v 180.87 h 107.13 v -23.53 h -79.63 v -54.72 h 71.1 v -23.53 h -71.1 v -55.56 h 86.74 v -23.53 h -114.24"
         style="fill:#040606;fill-opacity:1;fill-rule:nonzero;stroke:none"
         id="path30" /><path
         d="m 4574.64,2334.97 -7.38,81.65 c -1.13,12.18 -2.27,27.78 -2.84,41.11 h -0.56 c -5.66,-12.76 -14.45,-30.34 -20.42,-41.96 l -41.95,-82.21 h -10.21 l -42.52,82.21 c -6.24,11.9 -13.89,28.06 -20.13,41.39 h -0.57 c -0.57,-13.89 -1.98,-29.77 -2.84,-40.54 l -7.08,-81.65 h -24.38 l 15.59,180.87 h 17.01 l 48.2,-92.99 c 7.36,-14.17 16.72,-32.61 22.67,-46.49 h 0.57 c 5.67,13.88 14.46,31.46 22.12,46.49 l 47.63,92.99 h 17.01 l 16.15,-180.87 h -26.07"
         style="fill:#040606;fill-opacity:1;fill-rule:nonzero;stroke:none"
         id="path32" /><path
         d="m 4765.64,2495.72 c -33.45,0 -68.04,-25.23 -68.04,-70.03 0,-44.8 34.59,-70.31 68.04,-70.31 32.89,0 68.04,25.51 68.04,70.31 0,44.8 -35.15,70.03 -68.04,70.03 z m 0,-164.16 c -48.19,0 -93.84,35.45 -93.84,94.13 0,58.11 45.65,93.83 93.84,93.83 48.19,0 95.83,-35.72 95.83,-93.83 0,-58.68 -47.64,-94.13 -95.83,-94.13"
         style="fill:#040606;fill-opacity:1;fill-rule:nonzero;stroke:none"
         id="path34" /><path
         d="m 5096.15,2331 -84.77,92.71 c -13.61,14.74 -29.2,32.88 -41.68,47.62 l -0.57,-0.29 c 0.57,-16.44 0.57,-31.75 0.57,-45.35 v -90.72 h -27.5 v 180.87 h 19 l 77.68,-85.04 c 10.5,-11.63 26.94,-29.77 38,-43.38 l 0.56,0.28 c -0.56,13.89 -0.56,29.48 -0.56,42.53 v 85.61 h 27.5 V 2331 h -8.23"
         style="fill:#040606;fill-opacity:1;fill-rule:nonzero;stroke:none"
         id="path36" /><path
         d="m 5258.83,2492.59 h -23.53 v -134.37 h 23.53 c 40.83,0 74.57,21.26 74.57,67.19 0,45.92 -33.74,67.18 -74.57,67.18 z m 4.82,-157.62 h -55.57 v 180.87 h 55.57 c 50.47,0 97.82,-32.04 97.82,-90.43 0,-58.4 -47.35,-90.44 -97.82,-90.44"
         style="fill:#040606;fill-opacity:1;fill-rule:nonzero;stroke:none"
         id="path38" /><path
         d="m 5715.49,2418.31 v -83.34 h -26.93 v 83.34 l -69.17,97.53 h 30.04 l 36.29,-51.03 c 5.39,-7.65 11.92,-17.57 17.01,-25.52 h 0.57 c 5.11,7.95 12.48,18.44 17.3,25.52 l 36.29,51.03 h 28.06 l -69.46,-97.53"
         style="fill:#040606;fill-opacity:1;fill-rule:nonzero;stroke:none"
         id="path40" /></g></g></svg>
